<?xml version="1.0" encoding="utf-8"?>
<!-- Generator: Adobe Illustrator 16.0.0, SVG Export Plug-In . SVG Version: 6.00 Build 0)  -->
<!DOCTYPE svg PUBLIC "-//W3C//DTD SVG 1.1//EN" "http://www.w3.org/Graphics/SVG/1.1/DTD/svg11.dtd">
<svg version="1.1" id="Layer_1" xmlns="http://www.w3.org/2000/svg" xmlns:xlink="http://www.w3.org/1999/xlink" x="0px" y="0px"
	 width="227.333px" height="226.667px" viewBox="0 0 227.333 226.667" enable-background="new 0 0 227.333 226.667"
	 xml:space="preserve">
<g id="Layer_1_2_" display="none">
	<g id="Layer_1_1_" display="inline">
		<circle fill="#939598" stroke="#231F20" stroke-miterlimit="10" cx="174.395" cy="175.121" r="174.395"/>
	</g>
	<g id="Layer_4" display="inline">
		<path fill="#8FB4BD" d="M174.75,31C95.76,31,31.5,95.26,31.5,174.25c0,78.99,64.26,143.25,143.25,143.25
			C253.74,317.5,318,253.24,318,174.25C318,95.26,253.741,31,174.75,31z M174.75,314.5H174c-1-0.01-2.01-0.02-3-0.049
			c-75.61-2-136.5-64.131-136.5-140.201c0-76.069,60.89-138.2,136.5-140.2c0.99-0.03,2-0.04,3-0.05h0.75
			C252.081,34,315,96.92,315,174.25C315,251.58,252.081,314.5,174.75,314.5z"/>
		<polygon fill="#8FB4BD" points="174,315.98 171,315.98 171.063,281 173.813,280.938 		"/>
		<polygon fill="#8FB4BD" points="174,67.917 171,68.083 171,32.52 174,32.52 		"/>
		<path fill="#8FB4BD" d="M65.26,194.029c9.13,50.391,52.96,89,105.741,89.932c0.49,0.021,0.99,0.029,1.49,0.029l0.01-1.5l0.01-1.5
			c-51.811-0.23-95.04-37.771-104.21-87c-1.18-6.32-1.8-12.84-1.8-19.49c0-0.14,0-0.27,0.01-0.41l-1.74-0.1l0.199,17.135
			L65.26,194.029z"/>
		<path fill="#8FB4BD" d="M281.26,174v3.562c0,9.358-10.27,16.979-22.979,16.979c-12.54,0-22.819-7.621-22.819-16.979V153.98
			c0-0.779,0.891-1.439,1.938-1.439c1.131,0,2.021,0.66,2.021,1.439v23.581c0,7.739,8.5,13.979,18.86,14.039
			c10.521-0.06,19.021-6.3,19.021-14.039c0.002-0.599,0.006-1.192,0.006-1.791c0.002-1.472,0.014-2.94,0.016-4.412
			c0.004-1.896,0.018-3.791,0.02-5.687c0.003-1.873,0.021-3.744,0.019-5.615c-0.002-1.704,0.025-3.401-0.022-5.105
			c-0.012-0.4,0.035-0.846-0.043-1.242C267.51,105.02,224.45,68,173,68c-0.141,0-0.271,0-0.41,0.01l-0.18-3
			C172.61,65,172.799,65,173,65c0.33,0,0.67,0,1,0.01c52.41,0.47,96.26,38.09,106.319,87.75l0.529,4.041l0.149,1.14L281.26,174z"/>
	</g>
	<g id="Layer_2" display="inline">
		<line fill="none" stroke="#FFFFFF" stroke-width="12" stroke-miterlimit="10" x1="174.54" y1="-3.771" x2="174.54" y2="357.128"/>
		
			<line fill="none" stroke="#FFFFFF" stroke-width="12" stroke-miterlimit="10" x1="-6.775" y1="175.121" x2="412.948" y2="175.121"/>
	</g>
	<g id="Layer_3" display="inline">
		<g>
			<path fill="#8FB4BD" d="M112.36,154.22v38.88c0,0.78-0.89,1.44-1.94,1.44c-1.14,0-1.95-0.66-1.95-1.44v-34.56l-18.13,18.66
				c-0.4,0.479-1.05,0.658-1.61,0.658h-0.17c-0.73,0-1.29-0.18-1.7-0.658L68.73,158.6l-0.29,33.88c0,0.328,0.338,5.262,0.248,5.832
				c-0.08,0.479-1.297-3.771-1.897-3.771c-0.62,0-1.17-0.201-1.53-0.512l-0.28-2.979l-0.21-36.83c0-0.48,0.32-0.9,0.81-1.141
				c0-0.06,0.08-0.06,0.16-0.119c0.89-0.42,2.1-0.301,2.75,0.359l20.15,20.7l20.08-20.7c0.56-0.66,1.86-0.779,2.75-0.359
				c0.24,0.18,0.4,0.299,0.56,0.479C112.2,153.68,112.36,153.98,112.36,154.22z"/>
			<path fill="#8FB4BD" d="M160.11,191.6H133v-16.56h23.709c1.051,0,1.94-0.66,1.94-1.44c0-0.841-0.89-1.5-1.94-1.5H133v-16.62
				h27.109c1.131,0,1.939-0.66,1.939-1.5c0-0.779-0.809-1.439-1.939-1.439h-29.14c-1.05,0-1.94,0.66-1.94,1.439v39.12
				c0,0.78,0.811,1.381,1.78,1.44h29.3c1.131,0,1.939-0.66,1.939-1.44C162.049,192.25,161.241,191.6,160.11,191.6z"/>
			<path fill="#8FB4BD" d="M217,152.96c-1.051,0-1.939,0.66-1.939,1.439v34.2l-34.311-35.28c-0.57-0.66-1.871-0.779-2.76-0.359
				c-0.722,0.42-0.972,1.02-0.722,1.619V193.1c0,0.78,0.892,1.44,1.938,1.44c1.049,0,1.939-0.66,1.939-1.44v-34.38l33.99,35.029
				c0.078,0.131,0.238,0.189,0.328,0.25c0.4,0.359,0.893,0.541,1.531,0.541c1.141,0,2.028-0.66,2.028-1.44v-38.7
				C219.029,153.621,218.141,152.96,217,152.96z"/>
			<path fill="#8FB4BD" d="M280.84,156.38l-0.521-3.621l0.529,4.041L280.84,156.38z"/>
		</g>
	</g>
</g>
<g id="Layer_2_1_" display="none">
	<path display="inline" fill="#8FB4BD" d="M237.427,197.86c-3.91-6.595-12.734-12.565-17.245-19.784
		c-3.13-5.039-0.479-11.742-2.604-16.531c-1.644-3.703-5.52-5.162-6.791-8.187c-0.943-5.308-1.434-9.963-1.634-12.181h-7.762
		l-1.552,10.615h-33.939l-1.431-10.615H155.7c-0.199,2.217-0.676,6.873-1.631,12.181c-1.262,3.024-5.148,4.483-6.779,8.187
		c-2.125,4.789,0.53,11.492-2.615,16.531c-4.496,7.219-13.319,13.189-17.233,19.784c-7.245,12.218-6.78,23.361-6.78,23.361h123.534
		C244.194,221.222,244.674,210.078,237.427,197.86z M182.236,214.005c-15.55,0-28.167-12.616-28.167-28.166
		c0-15.553,12.617-28.168,28.167-28.168c15.548,0,28.166,12.617,28.166,28.168C210.402,201.389,197.784,214.005,182.236,214.005z"/>
	<path display="inline" fill="none" stroke="#FFFFFF" stroke-width="2" stroke-miterlimit="10" d="M182.236,157.669
		c-15.55,0-28.167,12.617-28.167,28.168s12.617,28.166,28.167,28.166c15.548,0,28.166-12.615,28.166-28.166
		S197.784,157.669,182.236,157.669z M195.929,168.207c2.176,0,3.938,1.764,3.938,3.938c0,2.188-1.764,3.954-3.938,3.954
		c-2.188,0-3.954-1.766-3.954-3.954C191.975,169.97,193.739,168.207,195.929,168.207z M182.927,161.865
		c2.188,0,3.954,1.764,3.954,3.939s-1.766,3.939-3.954,3.939c-2.179,0-3.942-1.764-3.942-3.939
		C178.984,163.628,180.749,161.865,182.927,161.865z M168.159,167.169c2.189,0,3.954,1.766,3.954,3.94
		c0,2.177-1.764,3.944-3.954,3.944c-2.176,0-3.941-1.768-3.941-3.944C164.217,168.935,165.983,167.169,168.159,167.169z
		 M162.254,189.755c-2.19,0-3.955-1.769-3.955-3.944c0-2.175,1.765-3.938,3.955-3.938c2.175,0,3.941,1.765,3.941,3.938
		C166.196,187.987,164.43,189.755,162.254,189.755z M167.642,203.587c-2.177,0-3.94-1.764-3.94-3.937
		c0-2.188,1.764-3.954,3.94-3.954s3.94,1.766,3.94,3.954C171.583,201.824,169.819,203.587,167.642,203.587z M181.68,209.853
		c-2.18,0-3.943-1.766-3.943-3.939c0-2.176,1.766-3.953,3.943-3.953c2.176,0,3.939,1.777,3.939,3.953
		C185.62,208.087,183.855,209.853,181.68,209.853z M182.236,197.792c-6.608,0-11.955-5.35-11.955-11.953
		c0-6.609,5.347-11.969,11.955-11.969c6.606,0,11.966,5.359,11.966,11.969C194.202,192.443,188.844,197.792,182.236,197.792z
		 M195.929,204.107c-2.188,0-3.954-1.768-3.954-3.939c0-2.174,1.766-3.941,3.954-3.941c2.176,0,3.938,1.768,3.938,3.941
		C199.868,202.339,198.104,204.107,195.929,204.107z M202.389,189.778c-2.174,0-3.941-1.765-3.941-3.938
		c0-2.178,1.768-3.944,3.941-3.944c2.175,0,3.939,1.769,3.939,3.944C206.329,188.014,204.563,189.778,202.389,189.778z"/>
	<path display="inline" fill="#8FB4BD" d="M194.202,185.839c0,6.604-5.357,11.953-11.966,11.953s-11.955-5.35-11.955-11.953
		c0-6.609,5.347-11.969,11.955-11.969S194.202,179.229,194.202,185.839z"/>
	<path display="inline" fill="none" stroke="#8FB4BD" stroke-miterlimit="10" d="M186.877,165.804c0,2.176-1.764,3.939-3.95,3.939
		c-2.179,0-3.942-1.764-3.942-3.939s1.764-3.939,3.942-3.939C185.114,161.865,186.877,163.628,186.877,165.804z"/>
	<path display="inline" fill="none" stroke="#8FB4BD" stroke-miterlimit="10" d="M185.62,205.914c0,2.174-1.765,3.938-3.939,3.938
		c-2.18,0-3.943-1.765-3.943-3.938c0-2.177,1.766-3.955,3.943-3.955C183.855,201.958,185.62,203.737,185.62,205.914z"/>
	<path display="inline" fill="none" stroke="#8FB4BD" stroke-miterlimit="10" d="M166.194,185.811c0,2.177-1.764,3.944-3.939,3.944
		c-2.188,0-3.953-1.769-3.953-3.944c0-2.175,1.767-3.938,3.953-3.938C164.43,181.871,166.194,183.636,166.194,185.811z"/>
	<circle display="inline" fill="none" stroke="#8FB4BD" stroke-miterlimit="10" cx="202.388" cy="185.839" r="3.94"/>
	<path display="inline" fill="none" stroke="#8FB4BD" stroke-miterlimit="10" d="M199.868,200.167c0,2.174-1.764,3.939-3.938,3.939
		c-2.188,0-3.954-1.768-3.954-3.939c0-2.174,1.766-3.941,3.954-3.941C198.104,196.226,199.868,197.994,199.868,200.167z"/>
	<path display="inline" fill="none" stroke="#8FB4BD" stroke-miterlimit="10" d="M199.868,172.146c0,2.189-1.764,3.954-3.938,3.954
		c-2.188,0-3.954-1.765-3.954-3.954c0-2.176,1.766-3.939,3.954-3.939C198.104,168.207,199.868,169.97,199.868,172.146z"/>
	<path display="inline" fill="none" stroke="#8FB4BD" stroke-miterlimit="10" d="M172.113,171.11c0,2.177-1.764,3.944-3.954,3.944
		c-2.178,0-3.941-1.768-3.941-3.944c0-2.175,1.764-3.94,3.941-3.94C170.349,167.169,172.113,168.935,172.113,171.11z"/>
	<path display="inline" fill="none" stroke="#8FB4BD" stroke-miterlimit="10" d="M171.583,199.651c0,2.173-1.764,3.937-3.942,3.937
		c-2.175,0-3.938-1.764-3.938-3.937c0-2.188,1.764-3.954,3.938-3.954C169.819,195.697,171.583,197.462,171.583,199.651z"/>
	
		<line display="inline" fill="none" stroke="#583055" stroke-width="2" stroke-miterlimit="10" x1="217.659" y1="114.63" x2="217.659" y2="114.563"/>
	<path display="inline" fill="#8FB4BD" d="M263.516,126.347l-44.926-1.979l-0.932-9.738c-5.094,0.238-23.337,1.285-40.451,4.629
		c-17.566,3.423-34.256,9.261-38.131,10.654l-0.811,5.983l-38.74,10.653l2.878-15.02c4.563-3.568,37.877-28.83,73.938-34.018
		c34.378-4.949,71.552,9.911,77.074,12.22L263.516,126.347z"/>
	
		<line display="inline" fill="none" stroke="#583055" stroke-width="2" stroke-miterlimit="10" x1="266.127" y1="131.865" x2="266.127" y2="131.852"/>
	
		<line display="inline" fill="none" stroke="#583055" stroke-width="2" stroke-miterlimit="10" x1="262.771" y1="151.501" x2="262.756" y2="151.555"/>
	<polygon display="inline" fill="#8FB4BD" points="266.127,131.865 262.771,151.501 214.663,143.369 217.052,127.858 	"/>
	<polygon display="inline" fill="#8FB4BD" points="142.961,147.296 107.406,172.49 99.723,151.914 139.156,139.48 	"/>
	<polygon display="inline" fill="#8FB4BD" points="260.885,238.272 104.368,238.272 110.059,226.662 254.904,226.662 	"/>
	<g display="inline">
		<path fill="#8FB4BD" d="M91.292,155.576c0,0-0.139,0.004-0.408,0.016c-0.264,0.025-0.68-0.008-1.178,0.082
			c-0.99,0.091-2.469,0.414-4.223,1.072c-0.878,0.332-1.822,0.774-2.821,1.297c-0.98,0.563-2.03,1.185-3.07,1.963
			c-2.08,1.547-4.255,3.543-5.789,6.232c-0.755,1.309-1.426,2.819-1.502,4.254c-0.033,0.715,0.057,1.396,0.33,2.028
			c0.131,0.317,0.316,0.622,0.542,0.912l0.081,0.11l0.02,0.028c0.064,0.073-0.066-0.067-0.04-0.042l0.062,0.063l0.247,0.254
			c0.091,0.102,0.154,0.146,0.206,0.182l0.165,0.135c1.158,0.866,2.997,1.371,4.66,1.25c0.836-0.07,1.641-0.312,2.231-0.789
			c0.558-0.414,1.077-1.371,1.125-1.992c-0.007-0.332-0.073-0.66-0.314-0.961c-0.256-0.285-0.583-0.578-1.013-0.771
			c-0.826-0.436-1.843-0.624-2.845-0.68c-0.505-0.037-1.013-0.008-1.515,0.047c-0.435,0.098-1.046,0.216-1.512,0.377
			c-0.923,0.348-1.897,0.783-2.733,1.424c-1.693,1.211-3.19,2.893-3.91,4.793c-0.159,0.52-0.382,1.057-0.484,1.563
			c-0.075,0.513-0.245,0.988-0.251,1.519c-0.034,0.521-0.087,1.038-0.026,1.554c0.02,0.258,0.025,0.516,0.054,0.771l0.146,0.758
			c0.396,2.02,1.457,3.848,2.814,5.374c1.351,1.54,2.993,2.827,4.767,3.853c1.786,1.021,3.671,1.795,5.628,2.293
			c1.933,0.494,3.938,0.771,5.613,0.494c0.207-0.035,0.396-0.094,0.595-0.134l0.534-0.188l0.232-0.123l0.117-0.057l0.029-0.016
			c0.093-0.057-0.094,0.063-0.06,0.04l0.079-0.056l0.637-0.426c0.124-0.117,0.195-0.203,0.309-0.293l0.261-0.326
			c0.081-0.205,0.175-0.367,0.131-0.44c0.001-0.127-0.184-0.429-0.733-0.552c-0.513-0.139-1.202-0.065-1.864,0.189l-0.25,0.102
			l-0.126,0.051l-0.031,0.013c-0.082,0.044,0.077-0.046,0.046-0.028l-0.077,0.045c-0.187,0.111-0.451,0.244-0.572,0.338
			c-0.202,0.15-0.464,0.359-0.687,0.617c-0.44,0.498-0.759,1.129-0.996,1.836c-0.466,1.428-0.549,3.088-0.584,4.707l-0.013,0.611
			l-0.002,0.076l-0.001,0.038c-0.005-0.129-0.001-0.015-0.002-0.032l0.005,0.153l0.01,0.306c0.019,0.396,0.006,0.842,0.071,1.146
			c0.063,0.656,0.228,1.351,0.403,2.023c0.403,1.328,0.987,2.545,1.652,3.629c0.654,1.094,1.45,2.008,2.19,2.848
			c0.784,0.801,1.548,1.506,2.294,2.078c1.485,1.158,2.815,1.871,3.745,2.293c0.458,0.232,0.833,0.352,1.077,0.461
			c0.247,0.101,0.375,0.152,0.375,0.152l-0.077,0.289c0,0-0.137-0.029-0.401-0.088c-0.262-0.068-0.668-0.123-1.172-0.281
			c-1.018-0.285-2.484-0.836-4.217-1.836c-1.723-1.002-3.702-2.519-5.433-4.797c-0.848-1.145-1.672-2.457-2.248-3.998
			c-0.266-0.775-0.525-1.576-0.679-2.496c-0.11-0.476-0.118-0.836-0.168-1.25l-0.031-0.305l-0.016-0.152l-0.012-0.227l-0.025-0.626
			c-0.041-1.688-0.093-3.537,0.435-5.563c0.267-1.004,0.739-2.059,1.499-2.972c0.373-0.448,0.811-0.86,1.37-1.259
			c0.256-0.184,0.417-0.262,0.631-0.396l0.076-0.047c-0.006,0.002,0.179-0.101,0.125-0.068l0.05-0.021l0.2-0.092l0.404-0.18
			c1.091-0.447,2.39-0.715,3.787-0.403c0.69,0.147,1.402,0.493,2.008,1.051c0.625,0.532,1.064,1.423,1.154,2.317
			c0.115,0.939-0.231,1.746-0.603,2.424c-0.214,0.299-0.43,0.592-0.679,0.861c-0.265,0.248-0.562,0.514-0.828,0.723l-0.639,0.424
			l-0.081,0.053c0.009-0.004-0.209,0.127-0.145,0.086l-0.057,0.026l-0.229,0.11l-0.461,0.215c-0.309,0.109-0.621,0.211-0.932,0.299
			c-0.307,0.063-0.62,0.137-0.926,0.18c-2.454,0.307-4.708-0.142-6.875-0.773c-2.161-0.643-4.285-1.59-6.224-2.831
			c-1.948-1.237-3.721-2.815-5.137-4.712c-1.4-1.891-2.437-4.141-2.683-6.52l-0.087-0.886c-0.008-0.296,0.009-0.595,0.014-0.89
			c-0.014-0.592,0.096-1.172,0.184-1.752c0.052-0.578,0.282-1.153,0.419-1.723c0.163-0.564,0.407-1.037,0.604-1.561
			c0.253-0.568,0.54-1.051,0.843-1.551c0.358-0.451,0.649-0.955,1.061-1.352c0.389-0.417,0.757-0.852,1.201-1.206l0.638-0.56
			l0.692-0.487c0.918-0.653,1.914-1.176,3.008-1.59c0.551-0.192,1.004-0.287,1.611-0.433c0.562-0.09,1.125-0.158,1.688-0.15
			c1.125-0.002,2.251,0.139,3.353,0.568c0.553,0.197,1.088,0.545,1.56,1c0.472,0.481,0.768,1.176,0.833,1.877
			c-0.021,0.334,0.013,0.685-0.098,1.015c-0.083,0.339-0.188,0.688-0.292,0.885l-0.156,0.353l-0.039,0.088
			c0.003,0-0.082,0.15-0.062,0.111l-0.033,0.051l-0.133,0.201l-0.274,0.399l-0.332,0.349c-0.916,0.908-2.101,1.389-3.234,1.582
			c-2.292,0.354-4.525-0.041-6.505-1.332l-0.398-0.302c-0.14-0.104-0.261-0.209-0.328-0.284l-0.25-0.25l-0.062-0.063
			c0.004,0.006-0.144-0.158-0.097-0.108L71.2,175.24l-0.131-0.17c-0.354-0.445-0.665-0.941-0.894-1.473
			c-0.478-1.059-0.642-2.233-0.543-3.301c0.203-2.16,1.083-3.865,2-5.396c1.92-3.01,4.47-5.106,6.844-6.556
			c2.381-1.483,4.688-2.352,6.633-2.815c1.953-0.463,3.522-0.544,4.606-0.458c0.539,0.01,0.917,0.117,1.188,0.143
			c0.267,0.039,0.404,0.06,0.404,0.06L91.292,155.576z"/>
	</g>
</g>
<g id="Layer_4_1_">
	<path fill="#8FB4BD" d="M50.613,65.274v44.331c14.913,8.499,35.026,17.391,44.673,24.126c9.125-2.931,17.896-4.843,25.233-4.843
		c6.787,0,14.886,1.824,23.341,4.631c9.768-6.695,30.34-15.393,44.598-23.766V65.274H50.613z M72.932,80.098h26.255v16.366H72.932
		V80.098z M138.571,120.548H95.577l-0.004-1.809h42.994L138.571,120.548z M162.858,108.199H72.932l-0.016-1.334h89.926
		L162.858,108.199z M162.858,83.569h-55.467v-1.31h55.467V83.569z"/>
	<rect x="95.577" y="120.242" fill="#FFFFFF" width="42.994" height="0.307"/>
	<path fill="none" stroke="#8FB4BD" stroke-width="2" stroke-miterlimit="10" d="M204.54,163.473v10.498
		c0,4.086-3.531,7.413-7.877,7.413H40.108c-4.343,0-7.877-3.327-7.877-7.413v-10.498c0,0,20.324-12.306,43.338-22.235
		c6.485-2.8,13.194-5.408,19.717-7.506c9.125-2.932,17.896-4.843,25.232-4.843c6.787,0,14.886,1.825,23.341,4.631
		c6.396,2.14,12.996,4.829,19.377,7.718C185.149,151.167,204.54,163.473,204.54,163.473z"/>
	<path fill="none" stroke="#8FB4BD" stroke-width="2" stroke-miterlimit="10" d="M204.54,97.082v66.392
		c0,0-19.391-12.306-41.303-22.235c-6.381-2.889-12.98-5.578-19.377-7.718c9.768-6.694,30.34-15.392,44.598-23.767
		c11.197-6.582,18.498-12.967,13.627-18.033C203.594,93.067,204.54,94.968,204.54,97.082z"/>
	<path fill="none" stroke="#8FB4BD" stroke-width="2" stroke-miterlimit="10" d="M95.286,133.731
		c-6.521,2.099-13.23,4.706-19.716,7.506c-23.014,9.931-43.338,22.235-43.338,22.235V97.08c0-0.777,0.134-1.531,0.368-2.236
		c1.498,4.347,8.76,9.476,18.014,14.761C65.526,118.104,85.639,126.996,95.286,133.731z"/>
	<rect x="72.932" y="80.098" fill="#FFFFFF" width="26.255" height="16.366"/>
	<path fill="none" stroke="#8FB4BD" stroke-width="2" stroke-miterlimit="10" d="M188.458,109.753V81.222
		c4.176,3.271,8.364,6.52,12.601,9.72c0,0.013,0.017,0.013,0.026,0.013c0.33,0.26,0.672,0.519,1,0.767
		C206.956,96.785,199.655,103.169,188.458,109.753z"/>
	<path fill="none" stroke="#8FB4BD" stroke-width="2" stroke-miterlimit="10" d="M50.613,78.318v31.287
		c-9.253-5.285-16.516-10.414-18.014-14.76c-0.642-1.889-0.208-3.631,1.602-5.176C39.678,85.889,45.151,82.11,50.613,78.318z"/>
	<path fill="none" stroke="#8FB4BD" stroke-width="2" stroke-miterlimit="10" d="M168.374,65.274H69.491
		c3.202-2.222,6.405-4.435,9.609-6.644c12.801-8.834,27.044-22.209,44.214-20.665c14.192,1.271,25.483,11.76,35.854,19.985
		C162.243,60.382,165.313,62.83,168.374,65.274z"/>
	
		<line fill="none" stroke="#8FB4BD" stroke-width="2" stroke-miterlimit="10" x1="131.113" y1="167.177" x2="186.581" y2="167.177"/>
	
		<line fill="none" stroke="#8FB4BD" stroke-width="2" stroke-miterlimit="10" x1="173.963" y1="172.735" x2="185.924" y2="172.735"/>
	
		<line fill="none" stroke="#8FB4BD" stroke-width="2" stroke-miterlimit="10" x1="131.113" y1="172.735" x2="158.847" y2="172.735"/>
	
		<rect x="109.688" y="95.229" fill="none" stroke="#8FB4BD" stroke-width="2" stroke-miterlimit="10" width="53.17" height="0.619"/>
</g>
<g id="Layer_3_1_" display="none">
</g>
</svg>
