<?xml version="1.0" encoding="utf-8"?>
<!-- Generator: Adobe Illustrator 16.0.0, SVG Export Plug-In . SVG Version: 6.00 Build 0)  -->
<!DOCTYPE svg PUBLIC "-//W3C//DTD SVG 1.1//EN" "http://www.w3.org/Graphics/SVG/1.1/DTD/svg11.dtd">
<svg version="1.1" xmlns="http://www.w3.org/2000/svg" xmlns:xlink="http://www.w3.org/1999/xlink" x="0px" y="0px"
	 width="227.333px" height="226.667px" viewBox="58.833 60.833 227.333 226.667"
	 enable-background="new 58.833 60.833 227.333 226.667" xml:space="preserve">
<g id="Layer_1" display="none">
	<g id="Layer_1_1_">
		<circle display="inline" fill="#939598" stroke="#231F20" stroke-miterlimit="10" cx="174.395" cy="175.121" r="174.395"/>
	</g>
	<g id="Layer_4" display="inline">
		<path fill="#8FB4BD" d="M174.75,31C95.76,31,31.5,95.26,31.5,174.25S95.76,317.5,174.75,317.5S318,253.24,318,174.25
			S253.74,31,174.75,31z M174.75,314.5H174c-1-0.01-2.01-0.02-3-0.05c-75.61-2-136.5-64.13-136.5-140.2
			c0-76.07,60.89-138.2,136.5-140.2c0.99-0.03,2-0.04,3-0.05h0.75C252.08,34,315,96.92,315,174.25S252.08,314.5,174.75,314.5z"/>
		<polygon fill="#8FB4BD" points="174,315.98 171,315.98 171.063,281 173.813,280.938 		"/>
		<polygon fill="#8FB4BD" points="174,67.917 171,68.083 171,32.52 174,32.52 		"/>
		<path fill="#8FB4BD" d="M65.26,194.029c9.13,50.391,52.96,89,105.74,89.931c0.49,0.021,0.99,0.03,1.49,0.03l0.01-1.5l0.01-1.5
			c-51.81-0.23-95.04-37.771-104.21-87c-1.18-6.32-1.8-12.84-1.8-19.49c0-0.14,0-0.27,0.01-0.41l-1.74-0.1l0.199,17.135
			L65.26,194.029z"/>
		<path fill="#8FB4BD" d="M281.26,174v3.561c0,9.359-10.27,16.979-22.979,16.979c-12.54,0-22.82-7.62-22.82-16.979V153.98
			c0-0.78,0.891-1.44,1.939-1.44c1.131,0,2.021,0.66,2.021,1.44v23.581c0,7.739,8.5,13.979,18.86,14.039
			c10.52-0.06,19.02-6.3,19.02-14.039c0.002-0.598,0.006-1.193,0.006-1.791c0.002-1.471,0.014-2.94,0.016-4.412
			c0.004-1.896,0.017-3.791,0.02-5.687c0.002-1.872,0.02-3.743,0.018-5.615c-0.002-1.704,0.025-3.401-0.023-5.105
			c-0.012-0.401,0.036-0.846-0.043-1.242C267.51,105.02,224.45,68,173,68c-0.14,0-0.27,0-0.41,0.01l-0.18-3
			C172.61,65,172.8,65,173,65c0.33,0,0.67,0,1,0.01c52.41,0.47,96.26,38.09,106.32,87.75l0.529,4.04l0.149,1.14L281.26,174z"/>
	</g>
	<g id="Layer_2">
		
			<line display="inline" fill="none" stroke="#FFFFFF" stroke-width="12" stroke-miterlimit="10" x1="174.54" y1="-3.771" x2="174.54" y2="357.128"/>
		
			<line display="inline" fill="none" stroke="#FFFFFF" stroke-width="12" stroke-miterlimit="10" x1="-6.775" y1="175.121" x2="412.948" y2="175.121"/>
	</g>
	<g id="Layer_3" display="inline">
		<g>
			<path fill="#8FB4BD" d="M112.36,154.22V193.1c0,0.78-0.89,1.44-1.94,1.44c-1.14,0-1.95-0.66-1.95-1.44v-34.56L90.34,177.2
				c-0.4,0.479-1.05,0.659-1.61,0.659h-0.17c-0.73,0-1.29-0.18-1.7-0.659l-18.13-18.6l-0.29,33.88c0,0.328,0.338,5.262,0.248,5.832
				c-0.08,0.479-1.297-3.772-1.897-3.772c-0.62,0-1.17-0.2-1.53-0.511l-0.28-2.979l-0.21-36.83c0-0.48,0.32-0.9,0.81-1.14
				c0-0.06,0.08-0.06,0.16-0.12c0.89-0.42,2.1-0.3,2.75,0.36l20.15,20.7l20.08-20.7c0.56-0.66,1.86-0.78,2.75-0.36
				c0.24,0.18,0.4,0.3,0.56,0.48C112.2,153.68,112.36,153.98,112.36,154.22z"/>
			<path fill="#8FB4BD" d="M160.11,191.6H133v-16.56h23.71c1.05,0,1.94-0.66,1.94-1.44c0-0.84-0.89-1.5-1.94-1.5H133v-16.62h27.11
				c1.13,0,1.94-0.66,1.94-1.5c0-0.78-0.81-1.44-1.94-1.44h-29.14c-1.05,0-1.94,0.66-1.94,1.44v39.12c0,0.78,0.81,1.381,1.78,1.44
				h29.3c1.13,0,1.94-0.66,1.94-1.44C162.05,192.25,161.24,191.6,160.11,191.6z"/>
			<path fill="#8FB4BD" d="M217,152.96c-1.05,0-1.939,0.66-1.939,1.44v34.2l-34.311-35.28c-0.57-0.66-1.87-0.78-2.76-0.36
				c-0.721,0.42-0.971,1.02-0.721,1.62v38.52c0,0.78,0.891,1.44,1.939,1.44s1.939-0.66,1.939-1.44V158.72l33.99,35.03
				c0.079,0.13,0.239,0.189,0.329,0.25c0.4,0.359,0.892,0.54,1.53,0.54c1.141,0,2.029-0.66,2.029-1.44v-38.7
				C219.029,153.62,218.141,152.96,217,152.96z"/>
			<path fill="#8FB4BD" d="M280.84,156.38l-0.52-3.62l0.529,4.04L280.84,156.38z"/>
		</g>
	</g>
</g>
<g id="Layer_2_1_" display="none">
	<path display="inline" fill="#8FB4BD" d="M237.427,197.86c-3.91-6.595-12.734-12.565-17.245-19.785
		c-3.13-5.039-0.479-11.741-2.604-16.53c-1.643-3.703-5.519-5.162-6.79-8.187c-0.944-5.307-1.434-9.963-1.634-12.18h-7.762
		l-1.551,10.614h-33.94l-1.431-10.614H155.7c-0.199,2.216-0.676,6.873-1.631,12.18c-1.262,3.025-5.148,4.484-6.78,8.187
		c-2.124,4.789,0.531,11.491-2.615,16.53c-4.496,7.22-13.319,13.19-17.233,19.785c-7.245,12.218-6.781,23.361-6.781,23.361h123.535
		C244.194,221.222,244.674,210.078,237.427,197.86z M182.236,214.005c-15.55,0-28.167-12.616-28.167-28.166
		c0-15.552,12.617-28.168,28.167-28.168c15.548,0,28.166,12.617,28.166,28.168C210.402,201.389,197.784,214.005,182.236,214.005z"/>
	<path display="inline" fill="none" stroke="#FFFFFF" stroke-width="2" stroke-miterlimit="10" d="M182.236,157.67
		c-15.55,0-28.167,12.617-28.167,28.168c0,15.55,12.617,28.166,28.167,28.166c15.548,0,28.166-12.616,28.166-28.166
		C210.402,170.287,197.784,157.67,182.236,157.67z M195.929,168.206c2.176,0,3.939,1.764,3.939,3.939
		c0,2.189-1.764,3.954-3.939,3.954c-2.189,0-3.954-1.765-3.954-3.954C191.975,169.97,193.739,168.206,195.929,168.206z
		 M182.927,161.864c2.189,0,3.954,1.765,3.954,3.94c0,2.176-1.765,3.94-3.954,3.94c-2.179,0-3.942-1.764-3.942-3.94
		C178.984,163.628,180.748,161.864,182.927,161.864z M168.159,167.17c2.189,0,3.954,1.765,3.954,3.94
		c0,2.176-1.764,3.944-3.954,3.944c-2.176,0-3.942-1.768-3.942-3.944C164.217,168.935,165.983,167.17,168.159,167.17z
		 M162.254,189.755c-2.19,0-3.954-1.768-3.954-3.944c0-2.175,1.764-3.939,3.954-3.939c2.175,0,3.942,1.765,3.942,3.939
		C166.196,187.987,164.43,189.755,162.254,189.755z M167.642,203.588c-2.176,0-3.94-1.764-3.94-3.937
		c0-2.189,1.764-3.954,3.94-3.954c2.177,0,3.941,1.765,3.941,3.954C171.583,201.824,169.819,203.588,167.642,203.588z
		 M181.68,209.853c-2.179,0-3.943-1.765-3.943-3.939c0-2.176,1.765-3.954,3.943-3.954c2.176,0,3.939,1.778,3.939,3.954
		C185.619,208.088,183.855,209.853,181.68,209.853z M182.236,197.793c-6.609,0-11.955-5.35-11.955-11.954
		c0-6.609,5.346-11.969,11.955-11.969c6.607,0,11.965,5.36,11.965,11.969C194.201,192.443,188.844,197.793,182.236,197.793z
		 M195.929,204.107c-2.189,0-3.954-1.767-3.954-3.94s1.765-3.941,3.954-3.941c2.176,0,3.939,1.768,3.939,3.941
		S198.104,204.107,195.929,204.107z M202.389,189.778c-2.174,0-3.941-1.765-3.941-3.939c0-2.177,1.768-3.944,3.941-3.944
		c2.175,0,3.939,1.768,3.939,3.944C206.328,188.014,204.563,189.778,202.389,189.778z"/>
	<path display="inline" fill="#8FB4BD" d="M194.201,185.839c0,6.604-5.357,11.954-11.965,11.954c-6.609,0-11.955-5.35-11.955-11.954
		c0-6.609,5.346-11.969,11.955-11.969C188.844,173.87,194.201,179.229,194.201,185.839z"/>
	<path display="inline" fill="none" stroke="#8FB4BD" stroke-miterlimit="10" d="M186.877,165.804c0,2.176-1.763,3.94-3.95,3.94
		c-2.179,0-3.942-1.764-3.942-3.94c0-2.175,1.764-3.94,3.942-3.94C185.114,161.864,186.877,163.628,186.877,165.804z"/>
	<path display="inline" fill="none" stroke="#8FB4BD" stroke-miterlimit="10" d="M185.619,205.913c0,2.175-1.764,3.939-3.939,3.939
		c-2.179,0-3.943-1.765-3.943-3.939c0-2.176,1.765-3.954,3.943-3.954C183.855,201.959,185.619,203.737,185.619,205.913z"/>
	<path display="inline" fill="none" stroke="#8FB4BD" stroke-miterlimit="10" d="M166.194,185.811c0,2.177-1.764,3.944-3.939,3.944
		c-2.188,0-3.954-1.768-3.954-3.944c0-2.175,1.767-3.939,3.954-3.939C164.43,181.871,166.194,183.636,166.194,185.811z"/>
	<circle display="inline" fill="none" stroke="#8FB4BD" stroke-miterlimit="10" cx="202.388" cy="185.839" r="3.94"/>
	<path display="inline" fill="none" stroke="#8FB4BD" stroke-miterlimit="10" d="M199.868,200.167c0,2.174-1.764,3.94-3.939,3.94
		c-2.189,0-3.954-1.767-3.954-3.94s1.765-3.941,3.954-3.941C198.104,196.226,199.868,197.993,199.868,200.167z"/>
	<path display="inline" fill="none" stroke="#8FB4BD" stroke-miterlimit="10" d="M199.868,172.146c0,2.189-1.764,3.954-3.939,3.954
		c-2.189,0-3.954-1.765-3.954-3.954c0-2.176,1.765-3.939,3.954-3.939C198.104,168.206,199.868,169.97,199.868,172.146z"/>
	<path display="inline" fill="none" stroke="#8FB4BD" stroke-miterlimit="10" d="M172.113,171.11c0,2.176-1.764,3.944-3.954,3.944
		c-2.178,0-3.942-1.768-3.942-3.944c0-2.175,1.764-3.94,3.942-3.94C170.349,167.17,172.113,168.935,172.113,171.11z"/>
	<path display="inline" fill="none" stroke="#8FB4BD" stroke-miterlimit="10" d="M171.583,199.651c0,2.173-1.764,3.937-3.943,3.937
		c-2.174,0-3.938-1.764-3.938-3.937c0-2.189,1.764-3.954,3.938-3.954C169.819,195.697,171.583,197.462,171.583,199.651z"/>
	
		<line display="inline" fill="none" stroke="#583055" stroke-width="2" stroke-miterlimit="10" x1="217.659" y1="114.63" x2="217.659" y2="114.563"/>
	<path display="inline" fill="#8FB4BD" d="M263.516,126.347l-44.926-1.979l-0.931-9.738c-5.094,0.239-23.337,1.286-40.452,4.63
		c-17.566,3.422-34.256,9.26-38.131,10.654l-0.81,5.983l-38.74,10.654l2.878-15.02c4.563-3.569,37.877-28.83,73.939-34.018
		c34.377-4.949,71.551,9.911,77.073,12.22L263.516,126.347z"/>
	
		<line display="inline" fill="none" stroke="#583055" stroke-width="2" stroke-miterlimit="10" x1="266.127" y1="131.865" x2="266.127" y2="131.852"/>
	
		<line display="inline" fill="none" stroke="#583055" stroke-width="2" stroke-miterlimit="10" x1="262.771" y1="151.501" x2="262.757" y2="151.555"/>
	<polygon display="inline" fill="#8FB4BD" points="266.127,131.865 262.771,151.501 214.663,143.368 217.052,127.858 	"/>
	<polygon display="inline" fill="#8FB4BD" points="142.962,147.296 107.406,172.49 99.723,151.913 139.156,139.48 	"/>
	<polygon display="inline" fill="#8FB4BD" points="260.885,238.272 104.368,238.272 110.059,226.661 254.904,226.661 	"/>
	<g display="inline">
		<path fill="#8FB4BD" d="M91.292,155.575c0,0-0.139,0.005-0.408,0.016c-0.264,0.026-0.68-0.008-1.178,0.083
			c-0.99,0.09-2.469,0.413-4.223,1.072c-0.878,0.332-1.822,0.774-2.821,1.297c-0.98,0.563-2.03,1.184-3.07,1.963
			c-2.08,1.546-4.255,3.542-5.789,6.232c-0.755,1.309-1.426,2.819-1.502,4.254c-0.033,0.715,0.057,1.396,0.33,2.028
			c0.131,0.318,0.316,0.622,0.542,0.912l0.081,0.111l0.02,0.028c0.064,0.073-0.066-0.068-0.04-0.042l0.062,0.063l0.247,0.253
			c0.091,0.102,0.154,0.146,0.206,0.182l0.165,0.135c1.158,0.866,2.997,1.371,4.66,1.25c0.836-0.07,1.641-0.312,2.231-0.789
			c0.558-0.414,1.077-1.371,1.125-1.992c-0.007-0.333-0.073-0.66-0.314-0.961c-0.256-0.285-0.583-0.579-1.013-0.772
			c-0.826-0.435-1.843-0.624-2.845-0.68c-0.505-0.037-1.013-0.008-1.515,0.047c-0.435,0.098-1.046,0.216-1.512,0.377
			c-0.923,0.347-1.897,0.783-2.733,1.424c-1.693,1.211-3.19,2.893-3.91,4.793c-0.159,0.519-0.382,1.057-0.484,1.563
			c-0.075,0.512-0.245,0.987-0.251,1.518c-0.034,0.521-0.087,1.038-0.026,1.554c0.02,0.258,0.025,0.516,0.054,0.771l0.146,0.758
			c0.396,2.02,1.457,3.847,2.814,5.374c1.351,1.54,2.993,2.827,4.767,3.853c1.786,1.021,3.671,1.795,5.628,2.292
			c1.933,0.494,3.938,0.772,5.613,0.494c0.207-0.034,0.396-0.093,0.595-0.133l0.534-0.189l0.232-0.122l0.117-0.058l0.029-0.015
			c0.093-0.057-0.094,0.063-0.06,0.04l0.079-0.055l0.637-0.427c0.124-0.116,0.195-0.203,0.309-0.292l0.261-0.327
			c0.081-0.205,0.175-0.367,0.131-0.44c0.001-0.127-0.184-0.428-0.733-0.551c-0.513-0.139-1.202-0.066-1.864,0.188l-0.25,0.103
			l-0.126,0.05l-0.031,0.013c-0.082,0.043,0.077-0.046,0.046-0.028l-0.077,0.044c-0.187,0.112-0.451,0.245-0.572,0.339
			c-0.202,0.15-0.464,0.359-0.687,0.617c-0.44,0.498-0.759,1.128-0.996,1.835c-0.466,1.428-0.549,3.088-0.584,4.707l-0.013,0.612
			l-0.002,0.076l-0.001,0.038c-0.005-0.129-0.001-0.014-0.002-0.032l0.005,0.153l0.01,0.306c0.019,0.396,0.006,0.842,0.071,1.146
			c0.063,0.657,0.228,1.351,0.403,2.023c0.403,1.329,0.987,2.546,1.652,3.629c0.654,1.095,1.45,2.008,2.19,2.848
			c0.784,0.801,1.548,1.506,2.294,2.078c1.485,1.159,2.815,1.872,3.745,2.293c0.458,0.233,0.833,0.352,1.077,0.461
			c0.247,0.101,0.375,0.152,0.375,0.152l-0.077,0.289c0,0-0.137-0.029-0.401-0.087c-0.262-0.068-0.668-0.124-1.172-0.281
			c-1.018-0.285-2.484-0.837-4.217-1.836c-1.723-1.003-3.702-2.519-5.433-4.798c-0.848-1.144-1.672-2.457-2.248-3.998
			c-0.266-0.774-0.525-1.575-0.679-2.496c-0.11-0.475-0.118-0.836-0.168-1.25l-0.031-0.304l-0.016-0.153l-0.012-0.226l-0.025-0.626
			c-0.041-1.688-0.093-3.537,0.435-5.563c0.267-1.005,0.739-2.059,1.499-2.972c0.373-0.449,0.811-0.861,1.37-1.259
			c0.256-0.184,0.417-0.262,0.631-0.397l0.076-0.047c-0.006,0.003,0.179-0.1,0.125-0.067l0.05-0.022l0.2-0.092l0.404-0.18
			c1.091-0.447,2.39-0.715,3.787-0.403c0.69,0.148,1.402,0.493,2.008,1.051c0.625,0.532,1.064,1.422,1.154,2.317
			c0.115,0.939-0.231,1.746-0.603,2.424c-0.214,0.299-0.43,0.592-0.679,0.861c-0.265,0.248-0.562,0.514-0.828,0.723l-0.639,0.424
			l-0.081,0.053c0.009-0.005-0.209,0.127-0.145,0.085l-0.057,0.027l-0.229,0.11l-0.461,0.215c-0.309,0.109-0.621,0.211-0.932,0.299
			c-0.307,0.062-0.62,0.137-0.926,0.179c-2.454,0.307-4.708-0.141-6.875-0.773c-2.161-0.643-4.285-1.59-6.224-2.831
			c-1.948-1.237-3.721-2.816-5.137-4.711c-1.4-1.892-2.437-4.141-2.683-6.52l-0.087-0.886c-0.008-0.296,0.009-0.594,0.014-0.889
			c-0.014-0.593,0.096-1.173,0.184-1.752c0.052-0.579,0.282-1.154,0.419-1.724c0.163-0.564,0.407-1.036,0.604-1.56
			c0.253-0.568,0.54-1.05,0.843-1.55c0.358-0.451,0.649-0.956,1.061-1.352c0.389-0.417,0.757-0.851,1.201-1.206l0.638-0.559
			l0.692-0.488c0.918-0.653,1.914-1.176,3.008-1.59c0.551-0.192,1.004-0.287,1.611-0.432c0.562-0.09,1.125-0.159,1.688-0.151
			c1.125-0.002,2.251,0.138,3.353,0.569c0.553,0.196,1.088,0.544,1.56,1c0.472,0.481,0.768,1.176,0.833,1.876
			c-0.021,0.335,0.013,0.685-0.098,1.015c-0.083,0.339-0.188,0.688-0.292,0.885l-0.156,0.353l-0.039,0.088
			c0.003,0-0.082,0.149-0.062,0.11l-0.033,0.051l-0.133,0.201l-0.274,0.4l-0.332,0.348c-0.916,0.909-2.101,1.39-3.234,1.583
			c-2.292,0.353-4.525-0.041-6.505-1.333l-0.398-0.301c-0.14-0.105-0.261-0.209-0.328-0.284l-0.25-0.251l-0.062-0.063
			c0.004,0.006-0.144-0.158-0.097-0.109l-0.033-0.042l-0.131-0.17c-0.354-0.445-0.665-0.941-0.894-1.473
			c-0.478-1.059-0.642-2.233-0.543-3.3c0.203-2.16,1.083-3.866,2-5.396c1.92-3.01,4.47-5.107,6.844-6.555
			c2.381-1.484,4.688-2.353,6.633-2.816c1.953-0.463,3.522-0.544,4.606-0.458c0.539,0.009,0.917,0.117,1.188,0.142
			c0.267,0.04,0.404,0.06,0.404,0.06L91.292,155.575z"/>
	</g>
</g>
<g id="Layer_4_1_">
	<path fill="none" stroke="#8FB4BD" stroke-width="2" stroke-miterlimit="10" d="M128.29,131.26v110.26
		c0,1.45-1.18,2.631-2.64,2.631l-37.52-17.44c-1.45,0-2.63-1.18-2.63-2.63V113.82c0-1.45,1.18-2.63,2.63-2.63l11.07,5.15
		l26.45,12.29C127.11,128.63,128.29,129.81,128.29,131.26z"/>
	<path fill="none" stroke="#8FB4BD" stroke-width="2" stroke-miterlimit="10" d="M215.03,131.26v110.26
		c0,1.45-1.181,2.631-2.641,2.631l-37.51-17.44c-1.24,0-2.29-0.86-2.56-2.01c-0.05-0.2-0.08-0.41-0.08-0.62V113.82
		c0-0.21,0.03-0.42,0.08-0.62c0.27-1.15,1.32-2.01,2.56-2.01l31.5,14.65l6.01,2.79C213.85,128.63,215.03,129.81,215.03,131.26z"/>
	<path fill="#3E3E3E" stroke="#8FB4BD" stroke-width="2" stroke-miterlimit="10" d="M172.32,113.2c-0.05,0.2-0.08,0.41-0.08,0.62
		v13.94l-24.76,36.53l-8.91-10.75l-10.28-12.4v-9.38c0-1.46,1.17-2.64,2.63-2.64l38.83-17.93
		C170.99,111.19,172.04,112.05,172.32,113.2z"/>
	<polygon fill="#3E3E3E" stroke="#8FB4BD" stroke-width="2" stroke-miterlimit="10" points="172.24,127.76 172.24,193.75 
		170.49,192.03 170.45,191.99 147.48,164.29 	"/>
	<path fill="#3E3E3E" stroke="#8FB4BD" stroke-width="2" stroke-miterlimit="10" d="M172.32,224.7c-0.28,1.149-1.33,2.01-2.57,2.01
		l-9.54,4.41l-16.79-25.61l27.03-13.52l0.04,0.04l1.75,2.109v29.94C172.24,224.29,172.27,224.5,172.32,224.7z"/>
	<path fill="#3E3E3E" stroke="#8FB4BD" stroke-width="2" stroke-miterlimit="10" d="M160.21,231.12l-29.29,13.52
		c-1.46,0-2.63-1.18-2.63-2.63v-28.93l15.13-7.57L160.21,231.12z"/>
	<path fill="none" stroke="#8FB4BD" stroke-width="2" stroke-miterlimit="10" d="M172.39,113.82v110.26c0,0.21-0.03,0.42-0.07,0.62
		c-0.05-0.2-0.08-0.41-0.08-0.62v-29.94l-1.75-2.109l1.75,1.72v-79.93c0-0.21,0.03-0.42,0.08-0.62
		C172.36,113.4,172.39,113.61,172.39,113.82z"/>
	<path fill="#3E3E3E" stroke="#8FB4BD" stroke-width="2" stroke-miterlimit="10" d="M243.19,146.98l-28.16,17.31v-32.78
		c0-1.45,1.18-2.63,2.63-2.63l6.229-2.88L243.19,146.98z"/>
	<path fill="#3E3E3E" stroke="#8FB4BD" stroke-width="2" stroke-miterlimit="10" d="M259.13,113.58v23.61l-15.939,9.79L223.89,126
		l32.61-15.05C257.95,110.95,259.13,112.13,259.13,113.58z"/>
	<polygon fill="#3E3E3E" stroke="#8FB4BD" stroke-width="2" stroke-miterlimit="10" points="259.13,137.19 259.13,195.5 
		215.03,233.54 215.03,164.29 243.19,146.98 	"/>
	<path fill="#3E3E3E" stroke="#8FB4BD" stroke-width="2" stroke-miterlimit="10" d="M259.13,195.5v28.33c0,1.46-1.18,2.64-2.63,2.64
		l-5.5,2.54L217.66,244.4c-1.45,0-2.63-1.181-2.63-2.631v-8.229L259.13,195.5z"/>
	<path fill="#BF5B33" stroke="#8FB4BD" stroke-width="2" stroke-miterlimit="10" d="M115.582,212.341
		c-0.868,2.381-4.067,3.405-7.141,2.285c-3.074-1.127-4.861-3.966-3.991-6.347c0.868-2.386,4.065-3.405,7.14-2.284
		S116.452,209.96,115.582,212.341z"/>
	<g>
		<path fill="#8FB4BD" d="M232.688,160.502c0,0,1.053,0.95,2.412,2.523c0.688,0.781,1.455,1.717,2.242,2.744
			c0.789,1.025,1.604,2.137,2.379,3.275c0.776,1.138,1.518,2.3,2.182,3.41c0.669,1.106,1.26,2.163,1.734,3.089
			c0.968,1.841,1.466,3.169,1.466,3.169s-1.054-0.948-2.414-2.522c-0.689-0.78-1.457-1.716-2.242-2.744
			c-0.791-1.023-1.602-2.138-2.377-3.276c-0.776-1.138-1.515-2.302-2.18-3.412c-0.668-1.107-1.259-2.163-1.734-3.089
			C233.188,161.829,232.688,160.502,232.688,160.502z"/>
	</g>
	<g>
		<path fill="#8FB4BD" d="M248.001,162.573c0,0-0.938,1.121-2.502,2.591c-0.776,0.743-1.708,1.576-2.732,2.433
			c-1.021,0.861-2.132,1.751-3.271,2.604c-1.138,0.854-2.301,1.674-3.414,2.413c-1.109,0.744-2.169,1.405-3.101,1.942
			c-1.85,1.091-3.189,1.675-3.189,1.675s0.937-1.123,2.501-2.593c0.775-0.744,1.707-1.577,2.732-2.433
			c1.021-0.862,2.133-1.75,3.271-2.603c1.138-0.854,2.304-1.671,3.416-2.411c1.109-0.743,2.169-1.405,3.1-1.942
			C246.662,163.159,248.001,162.573,248.001,162.573z"/>
	</g>
	<line fill="none" stroke="#8FB4BD" stroke-width="2" stroke-miterlimit="10" x1="194.95" y1="196.758" x2="187.526" y2="193.139"/>
	<line fill="none" stroke="#8FB4BD" stroke-width="2" stroke-miterlimit="10" x1="184.563" y1="190.62" x2="178.971" y2="185.021"/>
	<path fill="none" stroke="#8FB4BD" stroke-width="2" stroke-miterlimit="10" d="M176.979,182.278c0,0-1.332-0.993-2.399-2.52
		c-1.219-1.751-2.193-4.062-2.193-4.062"/>
	<line fill="none" stroke="#8FB4BD" stroke-width="2" stroke-miterlimit="10" x1="170.958" y1="169.773" x2="167.449" y2="162.53"/>
	<path fill="none" stroke="#8FB4BD" stroke-width="2" stroke-miterlimit="10" d="M165.804,159.024c0,0-0.825-1.954-2.194-3.512
		c-1.427-1.623-3.399-2.851-3.399-2.851"/>
	<path fill="none" stroke="#8FB4BD" stroke-width="2" stroke-miterlimit="10" d="M156.149,150.355c0,0-2.375-0.331-4.608-0.331
		c-1.975,0-3.838,0.331-3.838,0.331"/>
	<path fill="none" stroke="#8FB4BD" stroke-width="2" stroke-miterlimit="10" d="M143.424,150.906c0,0-1.604,0.635-3.293,1.644
		c-1.965,1.174-4.058,2.743-4.058,2.743"/>
	<path fill="none" stroke="#8FB4BD" stroke-width="2" stroke-miterlimit="10" d="M133.221,157.593c0,0-2.35,1.062-4.06,2.743
		c-1.69,1.666-2.742,3.95-2.742,3.95"/>
	<path fill="none" stroke="#8FB4BD" stroke-width="2" stroke-miterlimit="10" d="M124.597,167.91c0,0-1.073,1.783-1.907,3.73
		c-0.966,2.252-1.714,4.713-1.714,4.713"/>
	<line fill="none" stroke="#8FB4BD" stroke-width="2" stroke-miterlimit="10" x1="206.377" y1="197.89" x2="198.136" y2="197.275"/>
	
		<line fill="none" stroke="#8FB4BD" stroke-width="2" stroke-miterlimit="10" x1="217.724" y1="195.498" x2="209.854" y2="198.022"/>
	
		<line fill="none" stroke="#8FB4BD" stroke-width="2" stroke-miterlimit="10" x1="227.268" y1="189.835" x2="220.222" y2="194.143"/>
	
		<line fill="none" stroke="#8FB4BD" stroke-width="2" stroke-miterlimit="10" x1="234.162" y1="180.693" x2="229.754" y2="187.674"/>
	<line fill="none" stroke="#8FB4BD" stroke-width="2" stroke-miterlimit="10" x1="119.827" y1="180.49" x2="116.999" y2="187.882"/>
	
		<line fill="none" stroke="#8FB4BD" stroke-width="2" stroke-miterlimit="10" x1="115.857" y1="191.255" x2="113.028" y2="198.647"/>
	<line fill="none" stroke="#8FB4BD" stroke-width="2" stroke-miterlimit="10" x1="85.5" y1="160.502" x2="128.285" y2="141.138"/>
	<line fill="none" stroke="#8FB4BD" stroke-width="2" stroke-miterlimit="10" x1="104.23" y1="152.027" x2="128.285" y2="213.079"/>
	<line fill="none" stroke="#8FB4BD" stroke-width="2" stroke-miterlimit="10" x1="128.285" y1="213.079" x2="85.5" y2="194.143"/>
	<polygon fill="#3E3E3E" stroke="#8FB4BD" stroke-width="2" stroke-miterlimit="10" points="170.45,191.99 143.42,205.51 
		128.29,213.08 128.29,141.14 138.57,153.54 147.48,164.29 	"/>
	<line fill="none" stroke="#8FB4BD" stroke-width="2" stroke-miterlimit="10" x1="172.39" y1="127.54" x2="172.24" y2="127.76"/>
	
		<line fill="none" stroke="#8FB4BD" stroke-width="2" stroke-miterlimit="10" x1="172.387" y1="127.539" x2="215.028" y2="164.286"/>
	<polyline fill="none" stroke="#8FB4BD" stroke-width="2" stroke-miterlimit="10" points="213.79,234.61 172.39,193.9 
		172.24,193.75 	"/>
	<line fill="none" stroke="#8FB4BD" stroke-width="2" stroke-miterlimit="10" x1="215.03" y1="233.54" x2="213.79" y2="234.61"/>
	<line fill="none" stroke="#8FB4BD" stroke-width="2" stroke-miterlimit="10" x1="194.95" y1="146.983" x2="206.377" y2="125.836"/>
	<line fill="none" stroke="#8FB4BD" stroke-width="2" stroke-miterlimit="10" x1="120.976" y1="144.448" x2="99.195" y2="116.336"/>
	
		<line fill="none" stroke="#8FB4BD" stroke-width="2" stroke-miterlimit="10" x1="238.896" y1="213.079" x2="251.002" y2="229.006"/>
	<line fill="none" stroke="#8FB4BD" stroke-width="2" stroke-miterlimit="10" x1="223.89" y1="126" x2="223.74" y2="125.84"/>
</g>
<g id="Layer_3_1_" display="none">
	
		<circle display="inline" fill="none" stroke="#8FB4BD" stroke-width="2" stroke-miterlimit="10" cx="172.333" cy="174.335" r="111.167"/>
</g>
</svg>
