<?xml version="1.0" encoding="utf-8"?>
<!-- Generator: Adobe Illustrator 16.0.0, SVG Export Plug-In . SVG Version: 6.00 Build 0)  -->
<!DOCTYPE svg PUBLIC "-//W3C//DTD SVG 1.1//EN" "http://www.w3.org/Graphics/SVG/1.1/DTD/svg11.dtd">
<svg version="1.1" id="Layer_3_2_" xmlns="http://www.w3.org/2000/svg" xmlns:xlink="http://www.w3.org/1999/xlink" x="0px" y="0px"
	 width="227.333px" height="226.667px" viewBox="0 0 227.333 226.667" enable-background="new 0 0 227.333 226.667"
	 xml:space="preserve">
<line fill="none" stroke="#005469" stroke-miterlimit="10" x1="145.468" y1="114.667" x2="55.592" y2="140.914"/>
<g>
	<path fill="#7BAEB2" d="M36.948,27.798c0,0-0.172,0.428-0.277,1.267c-0.107,0.834-0.117,2.081,0.198,3.594
		c0.345,1.552,0.764,3.438,1.244,5.6c0.237,1.083,0.488,2.235,0.753,3.449c0.263,1.215,0.363,2.519,0.596,3.86
		c1.65,10.762,3.85,25.11,6.05,39.459c2.2,14.349,4.4,28.698,6.05,39.459c0.176,1.35,0.48,2.623,0.574,3.863
		c0.107,1.238,0.209,2.413,0.305,3.517c0.191,2.207,0.358,4.132,0.495,5.717c0.267,3.171,0.387,4.987,0.387,4.987
		s-0.43-1.771-1.125-4.877c-0.344-1.555-0.761-3.441-1.24-5.605c-0.24-1.082-0.495-2.234-0.763-3.448
		c-0.282-1.212-0.374-2.517-0.61-3.857c-1.65-10.762-3.85-25.111-6.05-39.459c-2.2-14.349-4.4-28.698-6.05-39.459
		c-0.18-1.349-0.474-2.624-0.587-3.861c-0.111-1.237-0.216-2.411-0.315-3.515c-0.202-2.208-0.363-4.126-0.482-5.724
		c-0.115-1.639,0.129-2.916,0.367-3.741C36.709,28.191,36.948,27.798,36.948,27.798z"/>
</g>
<path fill="none" stroke="#7BAEB2" stroke-miterlimit="10" d="M145.468,114.667l-89.876,26.247L39.192,28.295
	c0-1.347,1.091-2.426,2.426-2.426l89.186,14.215c1.334,0,2.426,1.08,2.426,2.426L145.468,114.667z"/>
<path fill="#7BAEB2" stroke="#005469" stroke-miterlimit="10" d="M141.41,105.899c0,1.341-1.085,2.426-2.426,2.426L60.296,127.56
	c-1.338,0-2.426-1.086-2.426-2.426l-14.555-91.12c0-1.34,1.087-2.426,2.426-2.426l83.539,11.068c1.341,0,2.426,1.086,2.426,2.426
	L141.41,105.899z"/>
<polygon fill="#7BAEB2" points="127.31,175.722 54.99,146.966 54.99,142.57 127.31,171.326 "/>
<polygon fill="#7BAEB2" points="127.817,176.228 205.846,130.238 205.846,126.247 127.817,171.528 "/>
<polygon fill="none" stroke="#7BAEB2" stroke-miterlimit="10" points="202.916,125.741 127.31,169.102 58.882,142.115 
	148.032,116.038 "/>
<polygon fill="#7BAEB2" points="182.346,135.216 163.167,146.057 145.049,140.914 165.745,131.578 "/>
<polygon fill="#7BAEB2" points="106.631,153.08 100.529,155.676 93.883,153.334 100.723,150.593 "/>
<polygon fill="#7BAEB2" points="114.065,149.915 108.195,152.413 102.325,149.951 108.51,147.451 108.522,147.451 "/>
<polygon fill="#7BAEB2" points="123.406,145.935 115.593,149.258 115.582,149.258 110.087,146.821 117.365,143.898 117.376,143.898 
	"/>
<polygon fill="#7BAEB2" points="129.786,143.219 125.079,145.231 119.099,143.206 123.818,141.314 "/>
<polygon fill="#7BAEB2" points="162.861,129.148 131.508,142.502 131.496,142.502 125.576,140.611 157.609,127.742 "/>
<polygon fill="#7BAEB2" points="167.386,127.22 164.692,128.373 164.68,128.373 159.502,126.991 162.11,125.922 162.122,125.922 "/>
<polygon fill="#7BAEB2" points="172.226,125.159 169.252,126.431 169.241,126.431 164.062,125.146 166.827,124.043 166.838,124.043 
	"/>
<polygon fill="#7BAEB2" points="177.272,123.011 174.154,124.333 168.852,123.231 171.655,122.102 "/>
<polygon fill="#7BAEB2" points="112.21,144.529 92.33,152.413 85.841,149.939 106.072,142.443 "/>
<polygon fill="#7BAEB2" points="118.76,141.934 113.944,143.837 107.868,141.775 112.999,139.859 113.011,139.859 "/>
<polygon fill="#7BAEB2" points="125.079,139.411 120.457,141.253 114.769,139.205 119.34,137.518 119.355,137.518 "/>
<polygon fill="#7BAEB2" points="131.155,137.008 126.85,138.719 121.174,136.838 125.552,135.213 125.564,135.213 "/>
<polygon fill="#7BAEB2" points="136.722,134.801 132.927,136.305 127.395,134.523 131.276,133.079 131.29,133.079 "/>
<polygon fill="#7BAEB2" points="141.951,132.727 138.518,134.097 138.505,134.097 133.133,132.4 136.663,131.089 "/>
<polygon fill="#7BAEB2" points="146.596,130.883 143.77,132.011 143.757,132.011 138.553,130.398 141.491,129.307 141.502,129.307 
	"/>
<polygon fill="#7BAEB2" points="151.144,129.064 148.403,130.167 143.358,128.604 146.292,127.523 146.304,127.523 "/>
<polygon fill="#7BAEB2" points="155.837,127.22 152.94,128.361 152.928,128.361 148.135,126.832 151.047,125.752 "/>
<polygon fill="#7BAEB2" points="159.793,125.644 157.645,126.493 152.94,125.062 154.892,124.322 154.904,124.322 "/>
<polygon fill="#7BAEB2" points="163.6,124.14 161.672,124.891 161.66,124.891 156.858,123.593 158.87,122.854 "/>
<polygon fill="#7BAEB2" points="170.065,121.568 165.493,123.387 160.835,122.126 164.984,120.585 "/>
<g>
	<polygon fill="#7BAEB2" points="126.085,133.953 122.229,135.372 117.583,133.916 121.669,132.484 	"/>
	<polygon fill="#7BAEB2" points="120.374,136.062 115.934,137.689 111.554,136.001 115.655,134.583 	"/>
	<polygon fill="#7BAEB2" points="131.167,132.083 127.917,133.285 123.55,131.831 126.838,130.69 	"/>
	<polygon fill="#7BAEB2" points="114.212,138.331 109.419,140.101 105.03,138.27 109.784,136.621 	"/>
	<polygon fill="#7BAEB2" points="107.747,140.721 102.192,142.758 97.399,140.927 103.308,138.876 	"/>
	<polygon fill="#7BAEB2" points="136.784,130.011 133.012,131.405 128.741,130.035 132.574,128.689 	"/>
	<polygon fill="#7BAEB2" points="163.25,120.257 160.374,121.314 156.82,120.257 158.798,119.579 	"/>
	<polygon fill="#7BAEB2" points="158.483,122.018 156.505,122.746 152.805,121.653 154.856,120.95 	"/>
	<polygon fill="#7BAEB2" points="154.588,123.449 152.139,124.359 148.403,123.193 150.841,122.345 	"/>
	<polygon fill="#7BAEB2" points="141.574,128.25 138.638,129.331 134.502,128.021 137.523,126.978 	"/>
	<polygon fill="#7BAEB2" points="100.457,143.4 84.555,149.258 79.146,147.27 95.618,141.545 	"/>
	<polygon fill="#7BAEB2" points="150.27,125.037 148.015,125.875 144.096,124.685 146.487,123.861 	"/>
	<polygon fill="#7BAEB2" points="146.134,126.566 143.431,127.56 139.439,126.31 142.144,125.365 	"/>
</g>
<g>
	<polygon fill="#7BAEB2" points="108.702,132.728 104.52,134.09 108.818,135.677 112.975,134.228 	"/>
	<polygon fill="#7BAEB2" points="102.659,134.697 97.745,136.295 102.232,137.975 107.018,136.305 	"/>
	<polygon fill="#7BAEB2" points="115.254,130.593 110.599,132.11 114.811,133.585 119.166,132.067 	"/>
	<polygon fill="#7BAEB2" points="153.497,120.084 156.514,119.032 152.805,118.363 150.336,119.166 	"/>
	<polygon fill="#7BAEB2" points="88.203,142.872 93.345,141.078 88.62,139.269 83.23,141.024 	"/>
	<polygon fill="#7BAEB2" points="120.21,128.979 117.097,129.993 120.95,131.444 124.133,130.333 	"/>
	<polygon fill="#7BAEB2" points="95.895,136.9 90.451,138.671 95.119,140.458 100.442,138.601 	"/>
	<polygon fill="#7BAEB2" points="81.375,141.628 72.123,144.641 77.581,146.58 86.407,143.499 	"/>
	<polygon fill="#7BAEB2" points="144.357,121.114 141.919,121.909 145.407,122.909 147.52,122.171 	"/>
	<polygon fill="#7BAEB2" points="148.288,119.833 146.292,120.483 149.389,121.518 151.523,120.774 	"/>
	<polygon fill="#7BAEB2" points="139.859,122.58 137.4,123.38 140.915,124.477 143.423,123.6 	"/>
	<polygon fill="#7BAEB2" points="130.783,125.536 127.805,126.504 131.605,127.725 134.343,126.77 	"/>
	<polygon fill="#7BAEB2" points="135.407,124.029 132.692,124.913 136.186,126.125 138.992,125.147 	"/>
	<polygon fill="#7BAEB2" points="125.834,127.147 122.122,128.356 125.983,129.686 129.703,128.389 	"/>
</g>
</svg>
