<?xml version="1.0" encoding="utf-8"?>
<!-- Generator: Adobe Illustrator 16.0.0, SVG Export Plug-In . SVG Version: 6.00 Build 0)  -->
<!DOCTYPE svg PUBLIC "-//W3C//DTD SVG 1.1//EN" "http://www.w3.org/Graphics/SVG/1.1/DTD/svg11.dtd">
<svg version="1.1" id="Layer_1" xmlns="http://www.w3.org/2000/svg" xmlns:xlink="http://www.w3.org/1999/xlink" x="0px" y="0px"
	 width="227.333px" height="226.667px" viewBox="0 0 227.333 226.667" enable-background="new 0 0 227.333 226.667"
	 xml:space="preserve">
<g id="Layer_1_3_">
	<g id="Layer_5">
	</g>
	<g id="Layer_1_2_" display="none">
		<g id="Layer_1_1_" display="inline">
			<circle fill="#8FB4BD" cx="174.395" cy="175.121" r="174.395"/>
		</g>
		<g id="Layer_4" display="inline">
			<path fill="#8FB4BD" d="M174.75,31C95.76,31,31.5,95.26,31.5,174.25c0,78.99,64.26,143.25,143.25,143.25
				c78.99,0,143.25-64.26,143.25-143.25C318,95.26,253.741,31,174.75,31z M174.75,314.5H174c-1-0.01-2.01-0.02-3-0.049
				c-75.61-2-136.5-64.131-136.5-140.201c0-76.069,60.89-138.2,136.5-140.2c0.99-0.03,2-0.04,3-0.05h0.75
				C252.081,34,315,96.92,315,174.25C315,251.58,252.081,314.5,174.75,314.5z"/>
			<polygon fill="#8FB4BD" points="174,315.98 171,315.98 171.063,281 173.813,280.938 			"/>
			<polygon fill="#8FB4BD" points="174,67.917 171,68.083 171,32.52 174,32.52 			"/>
			<path fill="#8FB4BD" d="M65.26,194.029c9.13,50.391,52.96,89,105.741,89.932c0.49,0.021,0.99,0.029,1.49,0.029l0.01-1.5
				l0.011-1.5c-51.812-0.229-95.04-37.771-104.21-87c-1.18-6.32-1.8-12.84-1.8-19.49c0-0.14,0-0.27,0.01-0.41l-1.74-0.1
				l0.199,17.135L65.26,194.029z"/>
			<path fill="#8FB4BD" d="M281.26,174v3.563c0,9.357-10.27,16.979-22.979,16.979c-12.54,0-22.819-7.621-22.819-16.979V153.98
				c0-0.779,0.892-1.439,1.938-1.439c1.131,0,2.021,0.66,2.021,1.439v23.581c0,7.739,8.5,13.979,18.86,14.039
				c10.521-0.06,19.021-6.3,19.021-14.039c0.002-0.599,0.006-1.192,0.006-1.791c0.002-1.472,0.014-2.94,0.017-4.412
				c0.004-1.896,0.018-3.791,0.02-5.687c0.003-1.873,0.021-3.744,0.019-5.615c-0.002-1.704,0.025-3.401-0.022-5.105
				c-0.012-0.4,0.035-0.846-0.043-1.242C267.51,105.02,224.45,68,173,68c-0.142,0-0.271,0-0.41,0.01l-0.18-3
				C172.61,65,172.799,65,173,65c0.33,0,0.67,0,1,0.01c52.41,0.47,96.26,38.09,106.318,87.75l0.529,4.041l0.148,1.14L281.26,174z"/>
		</g>
		<g id="Layer_2" display="inline">
			<line fill="#8FB4BD" x1="174.54" y1="-3.771" x2="174.54" y2="357.128"/>
			<line fill="#8FB4BD" x1="-6.775" y1="175.121" x2="412.948" y2="175.121"/>
		</g>
		<g id="Layer_3" display="inline">
			<g>
				<path fill="#8FB4BD" d="M112.36,154.22v38.88c0,0.78-0.89,1.44-1.94,1.44c-1.14,0-1.95-0.66-1.95-1.44v-34.56l-18.13,18.66
					c-0.4,0.479-1.05,0.657-1.61,0.657h-0.17c-0.73,0-1.29-0.18-1.7-0.657L68.73,158.6l-0.29,33.88c0,0.328,0.338,5.262,0.248,5.832
					c-0.08,0.479-1.297-3.771-1.897-3.771c-0.62,0-1.17-0.201-1.53-0.512l-0.28-2.979l-0.21-36.83c0-0.48,0.32-0.9,0.81-1.141
					c0-0.061,0.08-0.061,0.16-0.119c0.89-0.42,2.1-0.301,2.75,0.358l20.15,20.7l20.08-20.7c0.56-0.659,1.86-0.778,2.75-0.358
					c0.24,0.18,0.4,0.299,0.56,0.479C112.2,153.68,112.36,153.98,112.36,154.22z"/>
				<path fill="#8FB4BD" d="M160.11,191.6H133v-16.56h23.709c1.051,0,1.939-0.66,1.939-1.44c0-0.841-0.891-1.5-1.939-1.5H133v-16.62
					h27.108c1.131,0,1.938-0.66,1.938-1.5c0-0.779-0.809-1.439-1.938-1.439h-29.14c-1.051,0-1.94,0.66-1.94,1.439v39.12
					c0,0.78,0.812,1.381,1.78,1.44h29.3c1.131,0,1.938-0.66,1.938-1.44C162.049,192.25,161.241,191.6,160.11,191.6z"/>
				<path fill="#8FB4BD" d="M217,152.96c-1.051,0-1.939,0.66-1.939,1.438v34.2l-34.311-35.28c-0.57-0.659-1.871-0.778-2.76-0.358
					c-0.723,0.42-0.973,1.02-0.723,1.619V193.1c0,0.78,0.893,1.44,1.938,1.44c1.049,0,1.939-0.66,1.939-1.44v-34.38l33.99,35.029
					c0.078,0.131,0.238,0.188,0.328,0.25c0.399,0.358,0.893,0.541,1.531,0.541c1.141,0,2.027-0.66,2.027-1.44v-38.7
					C219.029,153.621,218.141,152.96,217,152.96z"/>
				<path fill="#8FB4BD" d="M280.84,156.38l-0.521-3.621l0.529,4.041L280.84,156.38z"/>
			</g>
		</g>
	</g>
	<g id="Layer_2_1_">
		<path fill="#8FB4BD" d="M177.731,134.205c-3.91-6.595-12.734-12.564-17.245-19.783c-3.13-5.04-0.479-11.742-2.604-16.531
			c-1.644-3.703-5.52-5.162-6.791-8.187c-0.942-5.308-1.434-9.963-1.633-12.18h-7.763l-1.552,10.614h-33.939l-1.431-10.614h-8.771
			c-0.199,2.216-0.676,6.873-1.631,12.18c-1.262,3.024-5.148,4.483-6.779,8.187c-2.125,4.789,0.53,11.492-2.615,16.531
			c-4.496,7.219-13.319,13.188-17.233,19.783c-7.245,12.219-6.78,23.361-6.78,23.361h123.535
			C184.499,157.567,184.978,146.421,177.731,134.205z M122.54,150.35c-15.549,0-28.167-12.616-28.167-28.166
			c0-15.553,12.617-28.168,28.167-28.168c15.549,0,28.166,12.617,28.166,28.168C150.706,137.734,138.086,150.35,122.54,150.35z"/>
		<path fill="#8FB4BD" d="M134.504,122.184c0,6.604-5.356,11.952-11.965,11.952c-6.609,0-11.956-5.35-11.956-11.952
			c0-6.608,5.347-11.969,11.956-11.969C129.147,110.215,134.504,115.574,134.504,122.184z"/>
		<line fill="#8FB4BD" x1="157.961" y1="50.975" x2="157.961" y2="50.908"/>
		<path fill="#8FB4BD" d="M203.82,62.692l-44.926-1.979l-0.933-9.738c-5.094,0.238-23.336,1.285-40.45,4.63
			c-17.566,3.422-34.256,9.26-38.131,10.653l-0.811,5.983L39.83,82.896l2.878-15.021c4.563-3.568,37.877-28.83,73.938-34.018
			c34.378-4.949,71.552,9.911,77.074,12.22L203.82,62.692z"/>
		<line fill="#8FB4BD" x1="206.431" y1="68.209" x2="206.431" y2="68.197"/>
		<line fill="#8FB4BD" x1="203.075" y1="87.846" x2="203.06" y2="87.9"/>
		<polygon fill="#8FB4BD" points="206.431,68.209 203.075,87.846 154.965,79.713 157.356,64.203 		"/>
		<polygon fill="#8FB4BD" points="83.265,83.641 47.709,108.834 40.027,88.258 79.459,75.825 		"/>
		<polygon fill="#8FB4BD" points="201.189,174.617 44.672,174.617 50.363,163.005 195.208,163.005 		"/>
		<g>
			<path fill="#8FB4BD" d="M31.596,91.92c0,0-0.139,0.004-0.408,0.016c-0.264,0.025-0.68-0.008-1.178,0.082
				c-0.99,0.091-2.469,0.414-4.223,1.072c-0.878,0.332-1.822,0.774-2.821,1.297c-0.98,0.563-2.03,1.186-3.07,1.963
				c-2.08,1.547-4.255,3.543-5.789,6.232c-0.755,1.309-1.426,2.819-1.502,4.254c-0.033,0.715,0.057,1.396,0.33,2.028
				c0.131,0.317,0.316,0.622,0.542,0.912l0.081,0.11l0.02,0.028c0.064,0.073-0.066-0.067-0.04-0.042l0.062,0.063l0.247,0.254
				c0.091,0.102,0.154,0.146,0.206,0.182l0.165,0.135c1.158,0.866,2.997,1.371,4.66,1.25c0.836-0.07,1.641-0.312,2.231-0.789
				c0.558-0.414,1.077-1.371,1.125-1.992c-0.007-0.332-0.073-0.659-0.314-0.961c-0.256-0.285-0.583-0.578-1.013-0.771
				c-0.826-0.436-1.843-0.624-2.845-0.68c-0.505-0.037-1.013-0.008-1.515,0.047c-0.435,0.098-1.046,0.216-1.512,0.377
				c-0.923,0.347-1.897,0.783-2.733,1.424c-1.693,1.211-3.19,2.893-3.91,4.793c-0.159,0.52-0.382,1.057-0.484,1.563
				c-0.075,0.514-0.245,0.988-0.251,1.52c-0.034,0.521-0.087,1.037-0.026,1.553c0.02,0.259,0.025,0.518,0.054,0.771l0.146,0.758
				c0.396,2.021,1.457,3.848,2.814,5.375c1.351,1.539,2.993,2.826,4.767,3.853c1.786,1.021,3.671,1.795,5.628,2.293
				c1.933,0.493,3.938,0.771,5.613,0.493c0.207-0.034,0.396-0.094,0.595-0.133l0.534-0.188l0.232-0.123l0.117-0.058l0.029-0.016
				c0.093-0.057-0.094,0.063-0.06,0.04l0.079-0.056l0.637-0.426c0.124-0.117,0.195-0.203,0.309-0.293l0.261-0.326
				c0.081-0.205,0.175-0.367,0.131-0.439c0.001-0.128-0.184-0.43-0.733-0.553c-0.513-0.139-1.202-0.064-1.864,0.188l-0.25,0.104
				l-0.126,0.051l-0.031,0.014c-0.082,0.043,0.077-0.047,0.046-0.028l-0.077,0.045c-0.187,0.11-0.451,0.243-0.572,0.339
				c-0.202,0.148-0.464,0.357-0.687,0.616c-0.44,0.497-0.759,1.129-0.996,1.836c-0.466,1.428-0.549,3.088-0.584,4.707l-0.013,0.61
				l-0.002,0.076l-0.001,0.039c-0.005-0.13-0.001-0.016-0.002-0.033l0.005,0.153l0.01,0.306c0.019,0.396,0.006,0.842,0.071,1.146
				c0.063,0.656,0.228,1.352,0.403,2.023c0.403,1.328,0.987,2.545,1.652,3.629c0.654,1.094,1.45,2.008,2.19,2.848
				c0.784,0.801,1.548,1.506,2.294,2.078c1.485,1.158,2.815,1.871,3.745,2.293c0.458,0.232,0.833,0.352,1.077,0.461
				c0.247,0.102,0.375,0.152,0.375,0.152l-0.077,0.289c0,0-0.137-0.029-0.401-0.088c-0.262-0.068-0.668-0.125-1.172-0.281
				c-1.018-0.285-2.484-0.836-4.217-1.836c-1.723-1.002-3.702-2.52-5.433-4.799c-0.848-1.144-1.672-2.457-2.248-3.998
				c-0.266-0.773-0.525-1.574-0.679-2.494c-0.11-0.477-0.118-0.836-0.168-1.25l-0.031-0.305l-0.016-0.152l-0.012-0.227l-0.025-0.627
				c-0.041-1.688-0.093-3.537,0.435-5.563c0.267-1.004,0.739-2.059,1.499-2.973c0.373-0.447,0.811-0.859,1.37-1.259
				c0.256-0.185,0.417-0.262,0.631-0.396l0.076-0.049c-0.006,0.004,0.179-0.1,0.125-0.066l0.05-0.021l0.2-0.092l0.404-0.18
				c1.091-0.447,2.39-0.715,3.787-0.403c0.69,0.147,1.402,0.493,2.008,1.052c0.625,0.531,1.064,1.422,1.154,2.316
				c0.115,0.938-0.231,1.746-0.603,2.424c-0.214,0.299-0.43,0.592-0.679,0.861c-0.265,0.248-0.562,0.514-0.828,0.723l-0.639,0.424
				l-0.081,0.053c0.009-0.004-0.209,0.127-0.145,0.086l-0.057,0.027l-0.229,0.109l-0.461,0.215
				c-0.309,0.109-0.621,0.211-0.932,0.299c-0.307,0.063-0.62,0.137-0.926,0.18c-2.454,0.308-4.708-0.142-6.875-0.772
				c-2.161-0.644-4.285-1.59-6.224-2.831c-1.948-1.236-3.721-2.816-5.137-4.711c-1.4-1.893-2.437-4.143-2.683-6.521l-0.087-0.885
				c-0.008-0.297,0.009-0.595,0.014-0.891c-0.014-0.592,0.096-1.172,0.184-1.752c0.052-0.578,0.282-1.153,0.419-1.725
				c0.163-0.563,0.407-1.036,0.604-1.56c0.253-0.568,0.54-1.051,0.843-1.551c0.358-0.45,0.649-0.955,1.061-1.352
				c0.389-0.417,0.757-0.852,1.201-1.206l0.638-0.559l0.692-0.488c0.918-0.653,1.914-1.176,3.008-1.59
				c0.551-0.192,1.004-0.287,1.611-0.433c0.562-0.09,1.125-0.158,1.688-0.15c1.125-0.002,2.251,0.138,3.353,0.568
				c0.553,0.196,1.088,0.545,1.56,1c0.472,0.481,0.768,1.177,0.833,1.877c-0.021,0.334,0.013,0.685-0.098,1.015
				c-0.083,0.339-0.188,0.688-0.292,0.885l-0.156,0.353l-0.039,0.089c0.003,0-0.082,0.149-0.062,0.11l-0.033,0.051l-0.133,0.201
				l-0.274,0.399l-0.332,0.349c-0.916,0.908-2.101,1.39-3.234,1.582c-2.292,0.354-4.525-0.041-6.505-1.332l-0.398-0.302
				c-0.14-0.104-0.261-0.209-0.328-0.284l-0.25-0.25l-0.062-0.063c0.004,0.006-0.144-0.158-0.097-0.109l-0.033-0.042l-0.131-0.17
				c-0.354-0.445-0.665-0.941-0.894-1.473c-0.478-1.059-0.642-2.233-0.543-3.301c0.203-2.16,1.083-3.865,2-5.396
				c1.92-3.01,4.47-5.106,6.844-6.555c2.381-1.484,4.688-2.353,6.633-2.816c1.953-0.463,3.522-0.544,4.606-0.458
				c0.539,0.01,0.917,0.117,1.188,0.143c0.267,0.039,0.404,0.06,0.404,0.06L31.596,91.92z"/>
		</g>
	</g>
	<g id="Layer_4_1_" display="none">
		<path display="inline" fill="#8FB4BD" d="M103.613,129.274v44.331c14.913,8.499,35.026,17.391,44.673,24.126
			c9.125-2.931,17.896-4.843,25.233-4.843c6.787,0,14.886,1.824,23.341,4.631c9.768-6.695,30.34-15.393,44.598-23.766v-44.479
			H103.613z M125.932,144.098h26.255v16.366h-26.255V144.098z M191.571,184.548h-42.994v-0.307h42.994V184.548z M215.858,172.199
			h-89.926v-0.619h89.926V172.199z M215.858,146.569h-55.467v-0.31h55.467V146.569z"/>
		<rect x="125.932" y="171.58" display="inline" fill="#8FB4BD" width="89.926" height="0.619"/>
		<rect x="148.577" y="184.242" display="inline" fill="#8FB4BD" width="42.994" height="0.307"/>
		<path display="inline" fill="#8FB4BD" d="M257.54,227.473v10.498c0,4.086-3.531,7.413-7.877,7.413H93.108
			c-4.343,0-7.877-3.327-7.877-7.413v-10.498c0,0,20.324-12.306,43.338-22.235c6.485-2.8,13.194-5.408,19.717-7.506
			c9.125-2.932,17.896-4.843,25.232-4.843c6.787,0,14.886,1.825,23.341,4.631c6.396,2.14,12.996,4.829,19.377,7.718
			C238.149,215.167,257.54,227.473,257.54,227.473z"/>
		<path display="inline" fill="#8FB4BD" d="M257.54,161.082v66.393c0,0-19.391-12.307-41.303-22.234
			c-6.381-2.89-12.98-5.578-19.377-7.719c9.768-6.693,30.34-15.393,44.598-23.768c11.197-6.582,18.498-12.967,13.627-18.031
			C256.594,157.067,257.54,158.968,257.54,161.082z"/>
		<path display="inline" fill="#8FB4BD" d="M148.286,197.731c-6.521,2.099-13.229,4.706-19.716,7.506
			c-23.014,9.931-43.338,22.235-43.338,22.235V161.08c0-0.777,0.134-1.531,0.368-2.234c1.498,4.346,8.76,9.475,18.014,14.76
			C118.526,182.104,138.639,190.996,148.286,197.731z"/>
		<rect x="125.932" y="144.098" display="inline" fill="#8FB4BD" width="26.255" height="16.366"/>
		<path display="inline" fill="#8FB4BD" d="M241.458,173.753v-28.531c4.176,3.271,8.364,6.52,12.602,9.72
			c0,0.013,0.018,0.013,0.025,0.013c0.33,0.26,0.672,0.52,1,0.768C259.956,160.785,252.655,167.169,241.458,173.753z"/>
		<path display="inline" fill="#8FB4BD" d="M103.613,142.318v31.287c-9.253-5.285-16.516-10.414-18.014-14.76
			c-0.642-1.889-0.208-3.631,1.602-5.176C92.678,149.889,98.151,146.11,103.613,142.318z"/>
		<path display="inline" fill="#8FB4BD" d="M221.374,129.274h-98.883c3.202-2.222,6.405-4.435,9.609-6.644
			c12.801-8.834,27.044-22.209,44.214-20.666c14.192,1.271,25.483,11.76,35.854,19.986
			C215.243,124.382,218.313,126.83,221.374,129.274z"/>
		<line display="inline" fill="#8FB4BD" x1="184.113" y1="231.177" x2="239.581" y2="231.177"/>
		<line display="inline" fill="#8FB4BD" x1="226.963" y1="236.735" x2="238.924" y2="236.735"/>
		<line display="inline" fill="#8FB4BD" x1="184.113" y1="236.735" x2="211.847" y2="236.735"/>
		<rect x="162.688" y="159.229" display="inline" fill="#8FB4BD" width="53.17" height="0.619"/>
	</g>
	<g id="Layer_3_1_" display="none">
	</g>
</g>
<g id="Layer_2_3_">
</g>
</svg>
